<?xml version="1.0" encoding="UTF-8"?>
<svg width="300" height="360" viewBox="0 0 300 360" fill="none" xmlns="http://www.w3.org/2000/svg">
  <!-- Shield Background -->
  <path d="M150 10C70 10 20 60 20 150C20 240 70 270 150 350C230 270 280 240 280 150C280 60 230 10 150 10Z" fill="#740001"/>
  
  <!-- Shield Border -->
  <path d="M150 0C65 0 10 55 10 150C10 245 65 280 150 360C235 280 290 245 290 150C290 55 235 0 150 0ZM150 10C230 10 280 60 280 150C280 240 230 270 150 350C70 270 20 240 20 150C20 60 70 10 150 10Z" fill="#D3A625"/>
  
  <!-- Stars -->
  <path d="M150 40L165 70L195 75L172 97L178 127L150 113L122 127L128 97L105 75L135 70L150 40Z" fill="#D3A625"/>
  <path d="M80 50L90 70L110 73L95 88L99 108L80 98L61 108L65 88L50 73L70 70L80 50Z" fill="#D3A625"/>
  <path d="M220 50L230 70L250 73L235 88L239 108L220 98L201 108L205 88L190 73L210 70L220 50Z" fill="#D3A625"/>
  
  <!-- Lion -->
  <path d="M150 100C120 100 95 125 95 155C95 185 120 210 150 210C180 210 205 185 205 155C205 125 180 100 150 100ZM150 120C170 120 185 135 185 155C185 175 170 190 150 190C130 190 115 175 115 155C115 135 130 120 150 120Z" fill="#D3A625"/>
  <path d="M150 130C135 130 125 140 125 155C125 170 135 180 150 180C165 180 175 170 175 155C175 140 165 130 150 130Z" fill="#740001"/>
  
  <!-- Text Banner -->
  <path d="M50 280H250V320H50V280Z" fill="#D3A625"/>
  <text x="150" y="308" fill="#740001" font-family="Cinzel Decorative" font-size="24" text-anchor="middle">GRYFFINDOR</text>
</svg> 