<?xml version="1.0" encoding="UTF-8"?>
<svg width="1920" height="200" viewBox="0 0 1920 200" fill="none" xmlns="http://www.w3.org/2000/svg">
  <path d="M0 200V170L50 160L100 165L150 155L200 160L250 150L300 155L350 145L400 150L450 140L500 145L550 135L600 140L650 130L700 135L750 125L800 130L850 120L900 125L950 115L1000 120L1050 110L1100 115L1150 105L1200 110L1250 100L1300 105L1350 95L1400 100L1450 90L1500 95L1550 85L1600 90L1650 80L1700 85L1750 75L1800 80L1850 70L1900 75L1920 70V200H0Z" fill="#060913"/>
  <path d="M960 0L980 30L1000 20L1020 40L1040 30L1060 50L1080 40L1100 60L1120 50L1140 70L1160 60L1180 80L1200 70L1220 90L1240 80L1260 100L1280 90L1300 110L1320 100L1340 120L1360 110L1380 130L1400 120L1420 140L1440 130L1460 150L1480 140L1500 160L1520 150L1540 170L1560 160L1580 180L1600 170L1620 190L1640 180L1660 200H1920V70L1900 75L1850 70L1800 80L1750 75L1700 85L1650 80L1600 90L1550 85L1500 95L1450 90L1400 100L1350 95L1300 105L1250 100L1200 110L1150 105L1100 115L1050 110L1000 120L950 115L900 125L850 120L800 130L750 125L700 135L650 130L600 140L550 135L500 145L450 140L400 150L350 145L300 155L250 150L200 160L150 155L100 165L50 160L0 170V200H260L280 180L300 190L320 180L340 190L360 180L380 190L400 180L420 190L440 180L460 190L480 180L500 190L520 180L540 190L560 180L580 190L600 180L620 190L640 180L660 190L680 180L700 190L720 180L740 190L760 180L780 190L800 180L820 190L840 180L860 190L880 180L900 190L920 180L940 190L960 180L980 190L1000 180L1020 190L1040 180L1060 190L1080 180L1100 190L1120 180L1140 190L1160 180L1180 190L1200 180L1220 190L1240 180L1260 190L1280 180L1300 190L1320 180L1340 190L1360 180L1380 190L1400 180L1420 190L1440 180L1460 190L1480 180L1500 190L1520 180L1540 190L1560 180L1580 190L1600 180L1620 190L1640 180L1660 200H1920V70L1900 75L1850 70L1800 80L1750 75L1700 85L1650 80L1600 90L1550 85L1500 95L1450 90L1400 100L1350 95L1300 105L1250 100L1200 110L1150 105L1100 115L1050 110L1000 120L950 115L900 125L850 120L800 130L750 125L700 135L650 130L600 140L550 135L500 145L450 140L400 150L350 145L300 155L250 150L200 160L150 155L100 165L50 160L0 170Z" fill="#0C1425"/>
</svg> 