<?xml version="1.0" encoding="UTF-8"?>
<svg width="300" height="360" viewBox="0 0 300 360" fill="none" xmlns="http://www.w3.org/2000/svg">
  <!-- Shield Background -->
  <path d="M150 10C70 10 20 60 20 150C20 240 70 270 150 350C230 270 280 240 280 150C280 60 230 10 150 10Z" fill="#1A472A"/>
  
  <!-- Shield Border -->
  <path d="M150 0C65 0 10 55 10 150C10 245 65 280 150 360C235 280 290 245 290 150C290 55 235 0 150 0ZM150 10C230 10 280 60 280 150C280 240 230 270 150 350C70 270 20 240 20 150C20 60 70 10 150 10Z" fill="#5D5D5D"/>
  
  <!-- Snake -->
  <path d="M150 80C130 80 110 90 100 110C90 130 90 150 100 170C110 190 130 200 150 200C170 200 190 190 200 170C210 150 210 130 200 110C190 90 170 80 150 80Z" fill="#5D5D5D"/>
  <path d="M150 100C135 100 120 108 112 124C104 140 104 156 112 172C120 188 135 196 150 196C165 196 180 188 188 172C196 156 196 140 188 124C180 108 165 100 150 100Z" fill="#1A472A"/>
  
  <!-- Snake Details -->
  <path d="M140 130C135 130 130 135 130 140C130 145 135 150 140 150C145 150 150 145 150 140C150 135 145 130 140 130Z" fill="#5D5D5D"/>
  <path d="M160 130C155 130 150 135 150 140C150 145 155 150 160 150C165 150 170 145 170 140C170 135 165 130 160 130Z" fill="#5D5D5D"/>
  
  <!-- Tongue -->
  <path d="M150 160L140 170L150 180L160 170L150 160Z" fill="#5D5D5D"/>
  
  <!-- Text Banner -->
  <path d="M50 280H250V320H50V280Z" fill="#5D5D5D"/>
  <text x="150" y="308" fill="#1A472A" font-family="Cinzel Decorative" font-size="24" text-anchor="middle">SLYTHERIN</text>
</svg> 